<?xml version="1.0" encoding="UTF-8" standalone="no" ?>
<!DOCTYPE svg PUBLIC "-//W3C//DTD SVG 1.1//EN" "http://www.w3.org/Graphics/SVG/1.1/DTD/svg11.dtd">
<svg xmlns="http://www.w3.org/2000/svg" xmlns:xlink="http://www.w3.org/1999/xlink" version="1.1" width="1280" height="1024" viewBox="0 0 1280 1024" xml:space="preserve">
<desc>Created with Fabric.js 5.3.0</desc>
<defs>
</defs>
<g transform="matrix(1 0 0 1 640 512)" id="background-logo"  >
<rect style="stroke: none; stroke-width: 0; stroke-dasharray: none; stroke-linecap: butt; stroke-dashoffset: 0; stroke-linejoin: miter; stroke-miterlimit: 4; fill: rgb(255,255,255); fill-rule: nonzero; opacity: 1;"  paint-order="stroke"  x="-640" y="-512" rx="0" ry="0" width="1280" height="1024" />
</g>
<g transform="matrix(1.9211538461538462 0 0 1.9211538461538462 640.2924356829329 219.20641876527486)" id="text-logo"  >
<g style=""  paint-order="stroke"   >
		<g transform="matrix(1 0 0 1 0 0)" id="text-logo-path-0"  >
<path style="stroke: rgb(63,177,207); stroke-width: 1; stroke-dasharray: none; stroke-linecap: butt; stroke-dashoffset: 0; stroke-linejoin: miter; stroke-miterlimit: 4; fill: rgb(42,93,110); fill-rule: nonzero; opacity: 1;"  paint-order="stroke"  transform=" translate(-289.63, 9.635)" d="M 6.6 0 L 0.27 0 L 7.31 -19.26 L 14.51 -19.26 L 21.53 0 L 14.98 0 L 14.16 -2.72 L 7.42 -2.72 L 6.6 0 Z M 10.75 -13.89 L 8.71 -7.03 L 12.88 -7.03 L 10.87 -13.89 L 10.75 -13.89 Z M 25.14 -7.75 L 25.14 -7.75 L 25.14 -19.26 L 31.32 -19.26 L 31.32 -7.83 Q 31.32 -6.22 32.19 -5.25 Q 33.06 -4.28 34.71 -4.28 Q 36.37 -4.28 37.25 -5.25 Q 38.13 -6.22 38.13 -7.83 L 38.13 -7.83 L 38.13 -19.26 L 44.31 -19.26 L 44.31 -7.75 Q 44.31 -3.8 41.81 -1.73 Q 39.32 0.34 34.74 0.34 Q 30.16 0.34 27.65 -1.73 Q 25.14 -3.8 25.14 -7.75 Z M 59.03 0 L 50.69 0 L 50.69 -19.26 L 59.03 -19.26 Q 69.13 -19.26 69.13 -9.64 L 69.13 -9.64 Q 69.13 0 59.03 0 L 59.03 0 Z M 56.87 -14.64 L 56.87 -4.62 L 58.92 -4.62 Q 62.8 -4.62 62.8 -8.79 L 62.8 -8.79 L 62.8 -10.47 Q 62.8 -14.64 58.92 -14.64 L 58.92 -14.64 L 56.87 -14.64 Z M 81.18 0 L 74.98 0 L 74.98 -19.26 L 81.18 -19.26 L 81.18 0 Z M 89.72 -2.21 Q 87.01 -4.76 87.01 -9.64 Q 87.01 -14.52 89.71 -17.06 Q 92.41 -19.61 97.4 -19.61 Q 102.39 -19.61 105.11 -17.06 Q 107.82 -14.52 107.82 -9.64 Q 107.82 -4.76 105.11 -2.21 Q 102.39 0.34 97.4 0.34 L 97.4 0.34 Q 92.43 0.34 89.72 -2.21 Z M 93.34 -10.53 L 93.34 -8.74 Q 93.34 -6.69 94.38 -5.48 Q 95.42 -4.28 97.4 -4.28 Q 99.39 -4.28 100.44 -5.49 Q 101.49 -6.7 101.49 -8.74 L 101.49 -8.74 L 101.49 -10.53 Q 101.49 -12.56 100.44 -13.77 Q 99.39 -14.98 97.4 -14.98 Q 95.42 -14.98 94.38 -13.78 Q 93.34 -12.58 93.34 -10.53 L 93.34 -10.53 Z M 129.45 0 L 113.38 0 L 113.38 -19.26 L 119.56 -19.26 L 119.56 -4.92 L 129.45 -4.92 L 129.45 0 Z M 135.71 -2.21 Q 133 -4.76 133 -9.64 Q 133 -14.52 135.7 -17.06 Q 138.4 -19.61 143.39 -19.61 Q 148.38 -19.61 151.1 -17.06 Q 153.81 -14.52 153.81 -9.64 Q 153.81 -4.76 151.1 -2.21 Q 148.38 0.34 143.39 0.34 L 143.39 0.34 Q 138.41 0.34 135.71 -2.21 Z M 139.33 -10.53 L 139.33 -8.74 Q 139.33 -6.69 140.37 -5.48 Q 141.41 -4.28 143.39 -4.28 Q 145.37 -4.28 146.43 -5.49 Q 147.48 -6.7 147.48 -8.74 L 147.48 -8.74 L 147.48 -10.53 Q 147.48 -12.56 146.43 -13.77 Q 145.37 -14.98 143.39 -14.98 Q 141.41 -14.98 140.37 -13.78 Q 139.33 -12.58 139.33 -10.53 L 139.33 -10.53 Z M 158.55 -9.64 L 158.55 -9.64 Q 158.55 -14.52 161.28 -17.06 Q 164.01 -19.61 169.05 -19.61 L 169.05 -19.61 Q 171.1 -19.61 172.87 -19.13 Q 174.63 -18.66 175.98 -17.77 Q 177.32 -16.87 178.09 -15.46 Q 178.85 -14.05 178.85 -12.29 L 178.85 -12.29 L 172.95 -12.29 Q 172.95 -13.49 171.89 -14.24 Q 170.83 -14.98 169.31 -14.98 L 169.31 -14.98 Q 167.14 -14.98 166.01 -13.82 Q 164.88 -12.66 164.88 -10.53 L 164.88 -10.53 L 164.88 -8.74 Q 164.88 -6.6 166.01 -5.44 Q 167.14 -4.28 169.31 -4.28 L 169.31 -4.28 Q 170.81 -4.28 171.88 -4.99 Q 172.95 -5.7 172.95 -6.84 L 172.95 -6.84 L 168.57 -6.84 L 168.57 -10.75 L 178.85 -10.75 L 178.85 0 L 175.65 0 L 175.04 -1.9 Q 172.43 0.34 168.16 0.34 L 168.16 0.34 Q 163.36 0.34 160.96 -2.17 Q 158.55 -4.69 158.55 -9.64 Z M 191.39 0 L 185.2 0 L 185.2 -19.26 L 191.39 -19.26 L 191.39 0 Z M 199.75 -2.18 Q 197.22 -4.7 197.22 -9.64 Q 197.22 -14.57 199.75 -17.09 Q 202.28 -19.61 207.22 -19.61 L 207.22 -19.61 Q 211.5 -19.61 213.99 -17.45 Q 216.49 -15.3 216.49 -11.33 L 216.49 -11.33 L 210.58 -11.33 Q 210.58 -13.03 209.7 -14.01 Q 208.82 -14.98 207.19 -14.98 L 207.19 -14.98 Q 203.55 -14.98 203.55 -10.53 L 203.55 -10.53 L 203.55 -8.74 Q 203.55 -6.66 204.44 -5.47 Q 205.32 -4.28 207.14 -4.28 L 207.14 -4.28 Q 208.93 -4.28 209.85 -5.2 Q 210.77 -6.13 210.77 -7.81 L 210.77 -7.81 L 216.49 -7.81 Q 216.49 -3.86 214.07 -1.76 Q 211.65 0.34 207.22 0.34 L 207.22 0.34 Q 202.28 0.34 199.75 -2.18 Z M 239.79 0 L 233.61 0 L 233.61 -19.26 L 245.4 -19.26 Q 246.96 -19.26 248.22 -18.79 Q 249.47 -18.31 250.26 -17.49 Q 251.05 -16.67 251.47 -15.61 Q 251.89 -14.55 251.89 -13.36 L 251.89 -13.36 Q 251.89 -11.61 250.94 -10.17 Q 249.98 -8.74 248.18 -8.07 L 248.18 -8.07 L 252.45 0 L 245.51 0 L 242.09 -7.03 L 239.79 -7.03 L 239.79 0 Z M 239.79 -14.86 L 239.79 -11.31 L 243.85 -11.31 Q 244.58 -11.31 245.09 -11.82 Q 245.59 -12.33 245.59 -13.1 Q 245.59 -13.86 245.09 -14.36 Q 244.58 -14.86 243.85 -14.86 L 243.85 -14.86 L 239.79 -14.86 Z M 274.48 0 L 257.63 0 L 257.63 -19.26 L 274.29 -19.26 L 274.29 -14.64 L 263.81 -14.64 L 263.81 -11.99 L 272.78 -11.99 L 272.78 -7.56 L 263.81 -7.56 L 263.81 -4.62 L 274.48 -4.62 L 274.48 0 Z M 286.26 0 L 280.08 0 L 280.08 -19.26 L 286.26 -19.26 L 286.26 -12.24 L 293.07 -12.24 L 293.07 -19.26 L 299.25 -19.26 L 299.25 0 L 293.07 0 L 293.07 -7.31 L 286.26 -7.31 L 286.26 0 Z M 310.16 0 L 303.83 0 L 310.87 -19.26 L 318.06 -19.26 L 325.09 0 L 318.54 0 L 317.72 -2.72 L 310.98 -2.72 L 310.16 0 Z M 314.3 -13.89 L 312.26 -7.03 L 316.43 -7.03 L 314.42 -13.89 L 314.3 -13.89 Z M 342.64 0 L 329.65 0 L 329.65 -19.26 L 342.48 -19.26 Q 344.69 -19.26 346.24 -17.92 Q 347.79 -16.58 347.79 -14.53 L 347.79 -14.53 Q 347.79 -10.99 344.57 -10.05 L 344.57 -10.05 L 344.57 -9.94 Q 348.23 -9.11 348.23 -5.13 L 348.23 -5.13 Q 348.23 -2.86 346.62 -1.43 Q 345.02 0 342.64 0 L 342.64 0 Z M 335.83 -7.78 L 335.83 -4.48 L 340.53 -4.48 Q 341.14 -4.48 341.55 -4.92 Q 341.97 -5.35 341.97 -5.99 L 341.97 -5.99 L 341.97 -6.28 Q 341.97 -6.9 341.55 -7.34 Q 341.14 -7.78 340.53 -7.78 L 340.53 -7.78 L 335.83 -7.78 Z M 335.83 -15.04 L 335.83 -11.76 L 340.08 -11.76 Q 340.68 -11.76 341.1 -12.2 Q 341.52 -12.65 341.52 -13.28 L 341.52 -13.28 L 341.52 -13.55 Q 341.52 -14.15 341.09 -14.59 Q 340.67 -15.04 340.08 -15.04 L 340.08 -15.04 L 335.83 -15.04 Z M 367.11 -2.21 Q 364.4 -4.76 364.4 -9.64 Q 364.4 -14.52 367.1 -17.06 Q 369.8 -19.61 374.79 -19.61 Q 379.78 -19.61 382.5 -17.06 Q 385.21 -14.52 385.21 -9.64 Q 385.21 -4.76 382.5 -2.21 Q 379.78 0.34 374.79 0.34 L 374.79 0.34 Q 369.81 0.34 367.11 -2.21 Z M 370.73 -10.53 L 370.73 -8.74 Q 370.73 -6.69 371.77 -5.48 Q 372.81 -4.28 374.79 -4.28 Q 376.77 -4.28 377.83 -5.49 Q 378.88 -6.7 378.88 -8.74 L 378.88 -8.74 L 378.88 -10.53 Q 378.88 -12.56 377.83 -13.77 Q 376.77 -14.98 374.79 -14.98 Q 372.81 -14.98 371.77 -13.78 Q 370.73 -12.58 370.73 -10.53 L 370.73 -10.53 Z M 396.95 0 L 390.77 0 L 390.77 -19.26 L 406.33 -19.26 L 406.33 -14.64 L 396.95 -14.64 L 396.95 -11.33 L 405.02 -11.33 L 405.02 -6.92 L 396.95 -6.92 L 396.95 0 Z M 427.76 0 L 421.43 0 L 428.47 -19.26 L 435.67 -19.26 L 442.69 0 L 436.14 0 L 435.32 -2.72 L 428.58 -2.72 L 427.76 0 Z M 431.91 -13.89 L 429.87 -7.03 L 434.04 -7.03 L 432.03 -13.89 L 431.91 -13.89 Z M 452.55 0 L 446.86 0 L 446.86 -19.26 L 455.6 -19.26 L 458.51 -8.15 L 458.62 -8.15 L 461.5 -19.26 L 469.92 -19.26 L 469.92 0 L 463.8 0 L 463.8 -6.95 Q 463.8 -8.24 463.91 -9.77 Q 464.02 -11.29 464.13 -12.17 L 464.13 -12.17 L 464.25 -13.04 L 464.13 -13.04 L 460.57 0 L 455.73 0 L 452.15 -13.02 L 452.04 -13.02 Q 452.55 -9.86 452.55 -6.95 L 452.55 -6.95 L 452.55 0 Z M 492.77 0 L 475.92 0 L 475.92 -19.26 L 492.58 -19.26 L 492.58 -14.64 L 482.1 -14.64 L 482.1 -11.99 L 491.07 -11.99 L 491.07 -7.56 L 482.1 -7.56 L 482.1 -4.62 L 492.77 -4.62 L 492.77 0 Z M 504.55 0 L 498.37 0 L 498.37 -19.26 L 510.16 -19.26 Q 511.72 -19.26 512.97 -18.79 Q 514.23 -18.31 515.02 -17.49 Q 515.8 -16.67 516.23 -15.61 Q 516.65 -14.55 516.65 -13.36 L 516.65 -13.36 Q 516.65 -11.61 515.69 -10.17 Q 514.74 -8.74 512.93 -8.07 L 512.93 -8.07 L 517.21 0 L 510.27 0 L 506.85 -7.03 L 504.55 -7.03 L 504.55 0 Z M 504.55 -14.86 L 504.55 -11.31 L 508.61 -11.31 Q 509.34 -11.31 509.84 -11.82 Q 510.35 -12.33 510.35 -13.1 Q 510.35 -13.86 509.84 -14.36 Q 509.34 -14.86 508.61 -14.86 L 508.61 -14.86 L 504.55 -14.86 Z M 528.86 0 L 522.66 0 L 522.66 -19.26 L 528.86 -19.26 L 528.86 0 Z M 537.22 -2.18 Q 534.69 -4.7 534.69 -9.64 Q 534.69 -14.57 537.22 -17.09 Q 539.75 -19.61 544.69 -19.61 L 544.69 -19.61 Q 548.97 -19.61 551.46 -17.45 Q 553.96 -15.3 553.96 -11.33 L 553.96 -11.33 L 548.05 -11.33 Q 548.05 -13.03 547.17 -14.01 Q 546.29 -14.98 544.66 -14.98 L 544.66 -14.98 Q 541.02 -14.98 541.02 -10.53 L 541.02 -10.53 L 541.02 -8.74 Q 541.02 -6.66 541.91 -5.47 Q 542.79 -4.28 544.61 -4.28 L 544.61 -4.28 Q 546.4 -4.28 547.32 -5.2 Q 548.24 -6.13 548.24 -7.81 L 548.24 -7.81 L 553.96 -7.81 Q 553.96 -3.86 551.54 -1.76 Q 549.12 0.34 544.69 0.34 L 544.69 0.34 Q 539.75 0.34 537.22 -2.18 Z M 564.06 0 L 557.73 0 L 564.77 -19.26 L 571.96 -19.26 L 578.99 0 L 572.44 0 L 571.62 -2.72 L 564.88 -2.72 L 564.06 0 Z M 568.2 -13.89 L 566.16 -7.03 L 570.33 -7.03 L 568.32 -13.89 L 568.2 -13.89 Z" stroke-linecap="round" />
</g>
</g>
</g>
<g transform="matrix(1.9211538461538462 0 0 1.9211538461538462 612.0774247304092 296.0853446803894)" id="tagline-4aa7fed2-88ec-4bc4-9c1f-56b8cf317a94-logo"  >
<g style=""  paint-order="stroke"   >
		<g transform="matrix(1 0 0 1 0 0)" id="tagline-4aa7fed2-88ec-4bc4-9c1f-56b8cf317a94-logo-path-0"  >
<path style="stroke: rgb(63,177,207); stroke-width: 1; stroke-dasharray: none; stroke-linecap: butt; stroke-dashoffset: 0; stroke-linejoin: miter; stroke-miterlimit: 4; fill: rgb(36,95,116); fill-rule: nonzero; opacity: 1;"  paint-order="stroke"  transform=" translate(-238.09500000000003, 7.3500000000000005)" d="M 12.03 -13.34 C 10.94 -14.3 9.3 -14.81 7.33 -14.81 C 3.17 -14.81 0.46 -12.05 0.46 -7.37 C 0.46 -2.9 3.07 0.11 7.33 0.11 C 9.45 0.11 11.17 -0.63 12.41 -1.81 L 11.53 -2.88 C 10.54 -1.95 9.01 -1.55 7.33 -1.55 C 4.22 -1.55 2.35 -3.89 2.35 -7.37 C 2.35 -11 4.31 -13.15 7.33 -13.15 C 8.71 -13.15 9.87 -12.85 10.77 -12.18 L 10.98 -10.71 L 12.03 -10.71 Z M 21.46 0.11 C 25.56 0.11 28.27 -2.69 28.27 -7.37 C 28.27 -11.82 25.7 -14.81 21.46 -14.81 C 17.3 -14.81 14.6 -12.05 14.6 -7.37 C 14.6 -2.9 17.2 0.11 21.46 0.11 Z M 16.48 -7.37 C 16.48 -11 18.44 -13.15 21.46 -13.15 C 24.53 -13.15 26.38 -10.84 26.38 -7.37 C 26.38 -3.74 24.42 -1.55 21.46 -1.55 C 18.35 -1.55 16.48 -3.89 16.48 -7.37 Z M 30.95 0 L 34.94 0 L 34.94 -1.05 L 33.89 -1.26 L 33.89 -10.29 L 38.3 0 L 40.19 0 L 44.6 -10.29 L 44.6 -1.26 L 43.55 -1.05 L 43.55 0 L 47.54 0 L 47.54 -1.05 L 46.49 -1.26 L 46.49 -13.44 L 47.54 -13.65 L 47.54 -14.7 L 44.6 -14.7 L 39.25 -1.76 L 33.89 -14.7 L 30.95 -14.7 L 30.95 -13.65 L 32 -13.44 L 32 -1.26 L 30.95 -1.05 Z M 50.34 0 L 54.33 0 L 54.33 -1.05 L 53.28 -1.26 L 53.28 -10.29 L 57.69 0 L 59.58 0 L 63.99 -10.29 L 63.99 -1.26 L 62.94 -1.05 L 62.94 0 L 66.93 0 L 66.93 -1.05 L 65.88 -1.26 L 65.88 -13.44 L 66.93 -13.65 L 66.93 -14.7 L 63.99 -14.7 L 58.63 -1.76 L 53.28 -14.7 L 50.34 -14.7 L 50.34 -13.65 L 51.39 -13.44 L 51.39 -1.26 L 50.34 -1.05 Z M 76.23 0.11 C 79.67 0.11 81.96 -2.06 81.96 -5.9 L 81.96 -13.44 L 83.01 -13.65 L 83.01 -14.7 L 79.02 -14.7 L 79.02 -13.65 L 80.07 -13.44 L 80.07 -5.9 C 80.07 -3.11 78.54 -1.55 76.23 -1.55 C 73.79 -1.55 72.32 -3.26 72.32 -5.9 L 72.3 -13.44 L 73.35 -13.65 L 73.35 -14.7 L 69.36 -14.7 L 69.36 -13.65 L 70.41 -13.44 L 70.43 -5.9 C 70.43 -2.27 72.64 0.11 76.23 0.11 Z M 86.58 -13.44 L 86.58 -1.26 L 85.53 -1.05 L 85.53 0 L 89.52 0 L 89.52 -1.05 L 88.47 -1.26 L 88.47 -11.82 L 96.24 0 L 98.13 0 L 98.13 -13.44 L 99.18 -13.65 L 99.18 -14.7 L 95.19 -14.7 L 95.19 -13.65 L 96.24 -13.44 L 96.24 -2.88 L 88.47 -14.7 L 85.53 -14.7 L 85.53 -13.65 Z M 102.73 -13.44 L 102.73 -1.26 L 101.68 -1.05 L 101.68 0 L 105.67 0 L 105.67 -1.05 L 104.62 -1.26 L 104.62 -13.44 L 105.67 -13.65 L 105.67 -14.7 L 101.68 -14.7 L 101.68 -13.65 Z M 119.78 -13.34 C 118.69 -14.3 117.05 -14.81 115.08 -14.81 C 110.92 -14.81 108.21 -12.05 108.21 -7.37 C 108.21 -2.9 110.82 0.11 115.08 0.11 C 117.2 0.11 118.92 -0.63 120.16 -1.81 L 119.28 -2.88 C 118.29 -1.95 116.76 -1.55 115.08 -1.55 C 111.97 -1.55 110.1 -3.89 110.1 -7.37 C 110.1 -11 112.06 -13.15 115.08 -13.15 C 116.47 -13.15 117.62 -12.85 118.52 -12.18 L 118.73 -10.71 L 119.78 -10.71 Z M 122.41 0 L 126.4 0 L 126.4 -1.05 L 125.5 -1.26 L 126.59 -4.2 L 132.93 -4.2 L 134.02 -1.26 L 133.12 -1.05 L 133.12 0 L 137.11 0 L 137.11 -1.05 L 135.89 -1.26 L 130.7 -14.7 L 128.81 -14.7 L 123.63 -1.26 L 122.41 -1.05 Z M 127.13 -5.67 L 129.76 -12.73 L 132.38 -5.67 Z M 149.18 -14.7 L 138.14 -14.7 L 138.14 -11.87 L 139.19 -11.87 L 139.4 -13.23 L 142.72 -13.23 L 142.72 -1.26 L 141.67 -1.05 L 141.67 0 L 145.66 0 L 145.66 -1.05 L 144.61 -1.26 L 144.61 -13.23 L 147.92 -13.23 L 148.13 -11.87 L 149.18 -11.87 Z M 152.75 -13.44 L 152.75 -1.26 L 151.7 -1.05 L 151.7 0 L 155.69 0 L 155.69 -1.05 L 154.64 -1.26 L 154.64 -13.44 L 155.69 -13.65 L 155.69 -14.7 L 151.7 -14.7 L 151.7 -13.65 Z M 165.1 0.11 C 169.2 0.11 171.91 -2.69 171.91 -7.37 C 171.91 -11.82 169.34 -14.81 165.1 -14.81 C 160.94 -14.81 158.24 -12.05 158.24 -7.37 C 158.24 -2.9 160.84 0.11 165.1 0.11 Z M 160.13 -7.37 C 160.13 -11 162.08 -13.15 165.1 -13.15 C 168.17 -13.15 170.02 -10.84 170.02 -7.37 C 170.02 -3.74 168.06 -1.55 165.1 -1.55 C 161.99 -1.55 160.13 -3.89 160.13 -7.37 Z M 175.39 -13.44 L 175.39 -1.26 L 174.34 -1.05 L 174.34 0 L 178.33 0 L 178.33 -1.05 L 177.28 -1.26 L 177.28 -11.82 L 185.05 0 L 186.94 0 L 186.94 -13.44 L 187.99 -13.65 L 187.99 -14.7 L 184 -14.7 L 184 -13.65 L 185.05 -13.44 L 185.05 -2.88 L 177.28 -14.7 L 174.34 -14.7 L 174.34 -13.65 Z M 196.71 -7.67 L 196.71 -7.67 Q 196.71 -9.18 197.41 -9.82 Q 198.11 -10.46 199.14 -10.46 L 199.14 -10.46 Q 200.17 -10.46 200.9 -9.82 Q 201.62 -9.18 201.62 -7.67 L 201.62 -7.67 Q 201.62 -6.17 200.9 -5.52 Q 200.17 -4.87 199.14 -4.87 L 199.14 -4.87 Q 198.11 -4.87 197.41 -5.52 Q 196.71 -6.17 196.71 -7.67 Z M 215.5 0.11 C 217.69 0.11 220.16 -1.28 220.16 -4.12 C 220.16 -6.66 217.9 -7.67 216.09 -8.38 C 214.12 -9.16 212.63 -9.58 212.63 -11.07 C 212.63 -12.26 213.21 -13.15 215.21 -13.15 C 216.59 -13.15 217.75 -12.85 218.65 -12.18 L 218.86 -10.71 L 219.91 -10.71 L 219.91 -13.34 C 218.82 -14.3 217.18 -14.81 215.21 -14.81 C 212.1 -14.81 210.74 -12.89 210.74 -11.07 C 210.74 -8.36 213.44 -7.6 215.38 -6.83 C 217.01 -6.17 218.27 -5.65 218.27 -4.12 C 218.27 -2.29 216.99 -1.55 215.5 -1.55 C 214.12 -1.55 212.96 -1.85 212.06 -2.52 L 211.85 -3.99 L 210.8 -3.99 L 210.8 -1.36 C 211.89 -0.4 213.53 0.11 215.5 0.11 Z M 229.34 0.11 C 232.79 0.11 235.07 -2.06 235.07 -5.9 L 235.07 -13.44 L 236.12 -13.65 L 236.12 -14.7 L 232.13 -14.7 L 232.13 -13.65 L 233.18 -13.44 L 233.18 -5.9 C 233.18 -3.11 231.65 -1.55 229.34 -1.55 C 226.91 -1.55 225.44 -3.26 225.44 -5.9 L 225.41 -13.44 L 226.46 -13.65 L 226.46 -14.7 L 222.47 -14.7 L 222.47 -13.65 L 223.52 -13.44 L 223.55 -5.9 C 223.55 -2.27 225.75 0.11 229.34 0.11 Z M 238.64 0 L 242.63 0 L 242.63 -1.05 L 241.58 -1.26 L 241.58 -6.09 L 244.02 -6.09 C 247.86 -6.09 249.56 -7.71 249.56 -10.42 C 249.56 -13 247.97 -14.7 244.02 -14.7 L 238.64 -14.7 L 238.64 -13.65 L 239.69 -13.44 L 239.69 -1.26 L 238.64 -1.05 Z M 241.58 -7.56 L 241.58 -13.23 L 244.02 -13.23 C 246.71 -13.23 247.67 -12.16 247.67 -10.42 C 247.67 -8.69 246.77 -7.56 244.02 -7.56 Z M 252.17 0 L 256.16 0 L 256.16 -1.05 L 255.11 -1.26 L 255.11 -6.09 L 257.54 -6.09 C 261.39 -6.09 263.09 -7.71 263.09 -10.42 C 263.09 -13 261.49 -14.7 257.54 -14.7 L 252.17 -14.7 L 252.17 -13.65 L 253.22 -13.44 L 253.22 -1.26 L 252.17 -1.05 Z M 255.11 -7.56 L 255.11 -13.23 L 257.54 -13.23 C 260.23 -13.23 261.2 -12.16 261.2 -10.42 C 261.2 -8.69 260.3 -7.56 257.54 -7.56 Z M 272.31 0.11 C 276.4 0.11 279.11 -2.69 279.11 -7.37 C 279.11 -11.82 276.55 -14.81 272.31 -14.81 C 268.15 -14.81 265.44 -12.05 265.44 -7.37 C 265.44 -2.9 268.04 0.11 272.31 0.11 Z M 267.33 -7.37 C 267.33 -11 269.28 -13.15 272.31 -13.15 C 275.37 -13.15 277.22 -10.84 277.22 -7.37 C 277.22 -3.74 275.27 -1.55 272.31 -1.55 C 269.2 -1.55 267.33 -3.89 267.33 -7.37 Z M 281.78 0 L 285.77 0 L 285.77 -1.05 L 284.72 -1.26 L 284.72 -6.3 L 287.15 -6.3 C 287.43 -6.3 287.68 -6.3 287.93 -6.32 L 291.65 0 L 294.38 0 L 294.38 -1.05 L 293.01 -1.26 L 289.84 -6.64 C 291.8 -7.22 292.7 -8.55 292.7 -10.52 C 292.7 -13.1 291.1 -14.7 287.15 -14.7 L 281.78 -14.7 L 281.78 -13.65 L 282.83 -13.44 L 282.83 -1.26 L 281.78 -1.05 Z M 284.72 -7.77 L 284.72 -13.23 L 287.15 -13.23 C 289.84 -13.23 290.81 -12.26 290.81 -10.52 C 290.81 -8.8 289.91 -7.77 287.15 -7.77 Z M 307.36 -14.7 L 296.31 -14.7 L 296.31 -11.87 L 297.36 -11.87 L 297.57 -13.23 L 300.89 -13.23 L 300.89 -1.26 L 299.84 -1.05 L 299.84 0 L 303.83 0 L 303.83 -1.05 L 302.78 -1.26 L 302.78 -13.23 L 306.1 -13.23 L 306.31 -11.87 L 307.36 -11.87 Z M 316.09 -7.67 L 316.09 -7.67 Q 316.09 -9.18 316.8 -9.82 Q 317.5 -10.46 318.53 -10.46 L 318.53 -10.46 Q 319.56 -10.46 320.28 -9.82 Q 321.01 -9.18 321.01 -7.67 L 321.01 -7.67 Q 321.01 -6.17 320.28 -5.52 Q 319.56 -4.87 318.53 -4.87 L 318.53 -4.87 Q 317.5 -4.87 316.8 -5.52 Q 316.09 -6.17 316.09 -7.67 Z M 340.89 -14.7 L 329.85 -14.7 L 329.85 -11.87 L 330.9 -11.87 L 331.11 -13.23 L 334.43 -13.23 L 334.43 -1.26 L 333.38 -1.05 L 333.38 0 L 337.37 0 L 337.37 -1.05 L 336.32 -1.26 L 336.32 -13.23 L 339.63 -13.23 L 339.84 -11.87 L 340.89 -11.87 Z M 344.46 -13.44 L 344.46 -1.26 L 343.41 -1.05 L 343.41 0 L 353.87 0 L 353.87 -2.83 L 352.82 -2.83 L 352.61 -1.47 L 346.35 -1.47 L 346.35 -6.93 L 351.35 -6.93 L 351.35 -8.4 L 346.35 -8.4 L 346.35 -13.23 L 352.61 -13.23 L 352.82 -11.87 L 353.87 -11.87 L 353.87 -14.7 L 343.41 -14.7 L 343.41 -13.65 Z M 368.17 -13.34 C 367.08 -14.3 365.44 -14.81 363.47 -14.81 C 359.31 -14.81 356.6 -12.05 356.6 -7.37 C 356.6 -2.9 359.21 0.11 363.47 0.11 C 365.59 0.11 367.31 -0.63 368.55 -1.81 L 367.67 -2.88 C 366.68 -1.95 365.15 -1.55 363.47 -1.55 C 360.36 -1.55 358.49 -3.89 358.49 -7.37 C 358.49 -11 360.44 -13.15 363.47 -13.15 C 364.85 -13.15 366.01 -12.85 366.91 -12.18 L 367.12 -10.71 L 368.17 -10.71 Z M 372.02 -13.44 L 372.02 -1.26 L 370.97 -1.05 L 370.97 0 L 374.96 0 L 374.96 -1.05 L 373.91 -1.26 L 373.91 -6.93 L 381.68 -6.93 L 381.68 -1.26 L 380.63 -1.05 L 380.63 0 L 384.62 0 L 384.62 -1.05 L 383.57 -1.26 L 383.57 -13.44 L 384.62 -13.65 L 384.62 -14.7 L 380.63 -14.7 L 380.63 -13.65 L 381.68 -13.44 L 381.68 -8.4 L 373.91 -8.4 L 373.91 -13.44 L 374.96 -13.65 L 374.96 -14.7 L 370.97 -14.7 L 370.97 -13.65 Z M 388.46 -13.44 L 388.46 -1.26 L 387.41 -1.05 L 387.41 0 L 391.4 0 L 391.4 -1.05 L 390.35 -1.26 L 390.35 -11.82 L 398.12 0 L 400.01 0 L 400.01 -13.44 L 401.06 -13.65 L 401.06 -14.7 L 397.07 -14.7 L 397.07 -13.65 L 398.12 -13.44 L 398.12 -2.88 L 390.35 -14.7 L 387.41 -14.7 L 387.41 -13.65 Z M 410.17 0.11 C 414.27 0.11 416.98 -2.69 416.98 -7.37 C 416.98 -11.82 414.41 -14.81 410.17 -14.81 C 406.01 -14.81 403.31 -12.05 403.31 -7.37 C 403.31 -2.9 405.91 0.11 410.17 0.11 Z M 405.2 -7.37 C 405.2 -11 407.15 -13.15 410.17 -13.15 C 413.24 -13.15 415.09 -10.84 415.09 -7.37 C 415.09 -3.74 413.13 -1.55 410.17 -1.55 C 407.06 -1.55 405.2 -3.89 405.2 -7.37 Z M 420.71 -13.44 L 420.71 -1.26 L 419.66 -1.05 L 419.66 0 L 430.12 0 L 430.12 -2.83 L 429.07 -2.83 L 428.86 -1.47 L 422.6 -1.47 L 422.6 -13.44 L 423.65 -13.65 L 423.65 -14.7 L 419.66 -14.7 L 419.66 -13.65 Z M 438.77 0.11 C 442.87 0.11 445.58 -2.69 445.58 -7.37 C 445.58 -11.82 443.02 -14.81 438.77 -14.81 C 434.62 -14.81 431.91 -12.05 431.91 -7.37 C 431.91 -2.9 434.51 0.11 438.77 0.11 Z M 433.8 -7.37 C 433.8 -11 435.75 -13.15 438.77 -13.15 C 441.84 -13.15 443.69 -10.84 443.69 -7.37 C 443.69 -3.74 441.74 -1.55 438.77 -1.55 C 435.67 -1.55 433.8 -3.89 433.8 -7.37 Z M 460.13 -13.34 C 459.04 -14.3 457.4 -14.81 455.43 -14.81 C 451.27 -14.81 448.56 -12.05 448.56 -7.37 C 448.56 -2.9 451.16 0.11 455.43 0.11 C 457.55 0.11 459.27 -0.63 460.51 -1.81 L 460.51 -7.35 L 455.03 -7.35 L 455.03 -5.88 L 458.62 -5.88 L 458.62 -2.18 C 457.72 -1.74 456.6 -1.55 455.43 -1.55 C 452.32 -1.55 450.45 -3.89 450.45 -7.37 C 450.45 -11 452.4 -13.15 455.43 -13.15 C 456.81 -13.15 457.97 -12.85 458.87 -12.18 L 459.08 -10.71 L 460.13 -10.71 Z M 464.52 -13.44 L 468.49 -5.67 L 468.49 -1.26 L 467.44 -1.05 L 467.44 0 L 471.43 0 L 471.43 -1.05 L 470.38 -1.26 L 470.38 -5.67 L 474.35 -13.44 L 475.73 -13.65 L 475.73 -14.7 L 471.74 -14.7 L 471.74 -13.65 L 472.5 -13.44 L 469.43 -7.18 L 466.37 -13.44 L 467.12 -13.65 L 467.12 -14.7 L 463.13 -14.7 L 463.13 -13.65 Z" stroke-linecap="round" />
</g>
</g>
</g>
<g transform="matrix(1.9211538461538462 0 0 1.9211538461538462 640.4451824227165 777.5456890833177)" id="tagline-23d577fb-13e1-4630-85fd-5668261d0acb-logo"  >
<g style=""  paint-order="stroke"   >
		<g transform="matrix(1 0 0 1 0 0)" id="tagline-23d577fb-13e1-4630-85fd-5668261d0acb-logo-path-0"  >
<path style="stroke: rgb(63,177,207); stroke-width: 1; stroke-dasharray: none; stroke-linecap: butt; stroke-dashoffset: 0; stroke-linejoin: miter; stroke-miterlimit: 4; fill: rgb(36,95,116); fill-rule: nonzero; opacity: 1;"  paint-order="stroke"  transform=" translate(-130.81000000000003, 5.879999999999999)" d="M 5.15 0 L 1.77 0 L 1.77 -15 L 5.15 -15 L 5.15 -9.22 L 10.33 -9.22 L 10.33 -15 L 13.73 -15 L 13.73 0 L 10.33 0 L 10.33 -6.26 L 5.15 -6.26 L 5.15 0 Z M 23.69 0.28 L 23.69 0.28 Q 21.23 0.28 19.57 -1.3 Q 17.92 -2.88 17.92 -5.7 L 17.92 -5.7 Q 17.92 -7.54 18.69 -8.89 Q 19.46 -10.23 20.69 -10.96 Q 21.92 -11.68 23.3 -11.68 L 23.3 -11.68 Q 25.74 -11.68 26.94 -10.11 Q 28.15 -8.53 28.15 -6.21 L 28.15 -6.21 Q 28.15 -5.27 28.01 -4.71 L 28.01 -4.71 L 21.18 -4.71 Q 21.41 -3.47 22.22 -2.89 Q 23.02 -2.3 24.15 -2.3 L 24.15 -2.3 Q 25.37 -2.3 26.61 -3.06 L 26.61 -3.06 L 27.74 -1.01 Q 25.85 0.28 23.69 0.28 Z M 21.16 -6.95 L 21.16 -6.95 L 25.28 -6.95 Q 25.28 -7.89 24.83 -8.5 Q 24.38 -9.11 23.37 -9.11 L 23.37 -9.11 Q 22.56 -9.11 21.94 -8.57 Q 21.32 -8.03 21.16 -6.95 Z M 35.86 -2.35 L 35.86 -2.35 Q 36.43 -2.35 36.86 -2.6 Q 37.28 -2.85 37.72 -3.31 L 37.72 -3.31 L 37.72 -5.31 Q 35.93 -5.06 35.24 -4.58 Q 34.55 -4.09 34.55 -3.43 L 34.55 -3.43 Q 34.55 -2.35 35.86 -2.35 Z M 34.71 0.28 L 34.71 0.28 Q 33.14 0.28 32.22 -0.72 Q 31.3 -1.72 31.3 -3.17 L 31.3 -3.17 Q 31.3 -4.97 32.82 -5.98 Q 34.34 -6.99 37.72 -7.34 L 37.72 -7.34 Q 37.67 -8.1 37.27 -8.54 Q 36.87 -8.99 35.93 -8.99 L 35.93 -8.99 Q 35.21 -8.99 34.48 -8.72 Q 33.74 -8.44 32.91 -7.96 L 32.91 -7.96 L 31.69 -10.19 Q 32.77 -10.86 33.99 -11.27 Q 35.21 -11.68 36.57 -11.68 L 36.57 -11.68 Q 38.75 -11.68 39.93 -10.42 Q 41.1 -9.15 41.1 -6.53 L 41.1 -6.53 L 41.1 0 L 38.34 0 L 38.11 -1.17 L 38.02 -1.17 Q 37.28 -0.53 36.48 -0.13 Q 35.67 0.28 34.71 0.28 Z M 48.92 0 L 45.54 0 L 45.54 -11.41 L 48.3 -11.41 L 48.53 -9.41 L 48.62 -9.41 Q 49.24 -10.56 50.12 -11.12 Q 50.99 -11.68 51.87 -11.68 L 51.87 -11.68 Q 52.35 -11.68 52.66 -11.62 Q 52.97 -11.55 53.22 -11.45 L 53.22 -11.45 L 52.67 -8.53 Q 52.37 -8.63 52.08 -8.67 Q 51.8 -8.72 51.43 -8.72 L 51.43 -8.72 Q 50.78 -8.72 50.08 -8.25 Q 49.38 -7.77 48.92 -6.62 L 48.92 -6.62 L 48.92 0 Z M 57.96 -13.09 L 57.96 -13.09 Q 57.11 -13.09 56.56 -13.58 Q 56.01 -14.08 56.01 -14.86 L 56.01 -14.86 Q 56.01 -15.64 56.56 -16.12 Q 57.11 -16.61 57.96 -16.61 L 57.96 -16.61 Q 58.83 -16.61 59.37 -16.12 Q 59.91 -15.64 59.91 -14.86 L 59.91 -14.86 Q 59.91 -14.08 59.37 -13.58 Q 58.83 -13.09 57.96 -13.09 Z M 59.66 0 L 56.28 0 L 56.28 -11.41 L 59.66 -11.41 L 59.66 0 Z M 67.6 0 L 64.22 0 L 64.22 -11.41 L 66.98 -11.41 L 67.21 -9.96 L 67.3 -9.96 Q 68.01 -10.65 68.91 -11.17 Q 69.81 -11.68 70.95 -11.68 L 70.95 -11.68 Q 72.82 -11.68 73.66 -10.45 Q 74.5 -9.22 74.5 -7.08 L 74.5 -7.08 L 74.5 0 L 71.12 0 L 71.12 -6.65 Q 71.12 -7.89 70.78 -8.35 Q 70.45 -8.81 69.71 -8.81 L 69.71 -8.81 Q 69.07 -8.81 68.61 -8.52 Q 68.15 -8.23 67.6 -7.71 L 67.6 -7.71 L 67.6 0 Z M 83.28 -5.66 L 83.28 -5.66 Q 83.95 -5.66 84.4 -6.14 Q 84.85 -6.62 84.85 -7.57 L 84.85 -7.57 Q 84.85 -8.46 84.4 -8.94 Q 83.95 -9.41 83.28 -9.41 L 83.28 -9.41 Q 82.62 -9.41 82.17 -8.95 Q 81.72 -8.49 81.72 -7.57 L 81.72 -7.57 Q 81.72 -6.62 82.17 -6.14 Q 82.62 -5.66 83.28 -5.66 Z M 83.03 4.85 L 83.03 4.85 Q 81.03 4.85 79.64 4.16 Q 78.25 3.47 78.25 1.96 L 78.25 1.96 Q 78.25 0.57 79.88 -0.34 L 79.88 -0.34 L 79.88 -0.44 Q 79.44 -0.74 79.13 -1.2 Q 78.82 -1.66 78.82 -2.37 L 78.82 -2.37 Q 78.82 -2.99 79.19 -3.56 Q 79.56 -4.14 80.11 -4.51 L 80.11 -4.51 L 80.11 -4.6 Q 79.51 -5.01 79.04 -5.8 Q 78.57 -6.58 78.57 -7.57 L 78.57 -7.57 Q 78.57 -9.61 80.01 -10.65 Q 81.44 -11.68 83.28 -11.68 L 83.28 -11.68 Q 84.3 -11.68 85.05 -11.41 L 85.05 -11.41 L 89.22 -11.41 L 89.22 -8.95 L 87.4 -8.95 Q 87.77 -8.33 87.77 -7.45 L 87.77 -7.45 Q 87.77 -5.47 86.47 -4.54 Q 85.17 -3.61 83.28 -3.61 L 83.28 -3.61 Q 82.62 -3.61 81.9 -3.84 L 81.9 -3.84 Q 81.49 -3.5 81.49 -2.99 L 81.49 -2.99 Q 81.49 -2.55 81.88 -2.35 Q 82.27 -2.14 83.21 -2.14 L 83.21 -2.14 L 85.05 -2.14 Q 87.17 -2.14 88.29 -1.46 Q 89.4 -0.78 89.4 0.76 L 89.4 0.76 Q 89.4 2.53 87.69 3.69 Q 85.97 4.85 83.03 4.85 Z M 83.56 2.74 L 83.56 2.74 Q 84.69 2.74 85.43 2.33 Q 86.18 1.93 86.18 1.33 L 86.18 1.33 Q 86.18 0.8 85.73 0.62 Q 85.28 0.44 84.43 0.44 L 84.43 0.44 L 83.26 0.44 Q 82.2 0.44 81.65 0.3 L 81.65 0.3 Q 81.03 0.85 81.03 1.43 L 81.03 1.43 Q 81.03 2.07 81.73 2.4 Q 82.43 2.74 83.56 2.74 Z M 102.67 0 L 99.29 0 L 99.29 -15 L 102.67 -15 L 102.67 -9.22 L 107.85 -9.22 L 107.85 -15 L 111.25 -15 L 111.25 0 L 107.85 0 L 107.85 -6.26 L 102.67 -6.26 L 102.67 0 Z M 121.21 0.28 L 121.21 0.28 Q 118.75 0.28 117.09 -1.3 Q 115.44 -2.88 115.44 -5.7 L 115.44 -5.7 Q 115.44 -7.54 116.21 -8.89 Q 116.98 -10.23 118.21 -10.96 Q 119.44 -11.68 120.82 -11.68 L 120.82 -11.68 Q 123.26 -11.68 124.46 -10.11 Q 125.67 -8.53 125.67 -6.21 L 125.67 -6.21 Q 125.67 -5.27 125.53 -4.71 L 125.53 -4.71 L 118.7 -4.71 Q 118.93 -3.47 119.74 -2.89 Q 120.54 -2.3 121.67 -2.3 L 121.67 -2.3 Q 122.89 -2.3 124.13 -3.06 L 124.13 -3.06 L 125.26 -1.01 Q 123.37 0.28 121.21 0.28 Z M 118.68 -6.95 L 118.68 -6.95 L 122.8 -6.95 Q 122.8 -7.89 122.35 -8.5 Q 121.9 -9.11 120.89 -9.11 L 120.89 -9.11 Q 120.08 -9.11 119.46 -8.57 Q 118.84 -8.03 118.68 -6.95 Z M 133.38 -2.35 L 133.38 -2.35 Q 133.95 -2.35 134.38 -2.6 Q 134.8 -2.85 135.24 -3.31 L 135.24 -3.31 L 135.24 -5.31 Q 133.45 -5.06 132.76 -4.58 Q 132.07 -4.09 132.07 -3.43 L 132.07 -3.43 Q 132.07 -2.35 133.38 -2.35 Z M 132.23 0.28 L 132.23 0.28 Q 130.66 0.28 129.74 -0.72 Q 128.82 -1.72 128.82 -3.17 L 128.82 -3.17 Q 128.82 -4.97 130.34 -5.98 Q 131.86 -6.99 135.24 -7.34 L 135.24 -7.34 Q 135.19 -8.1 134.79 -8.54 Q 134.39 -8.99 133.45 -8.99 L 133.45 -8.99 Q 132.73 -8.99 132 -8.72 Q 131.26 -8.44 130.43 -7.96 L 130.43 -7.96 L 129.21 -10.19 Q 130.3 -10.86 131.51 -11.27 Q 132.73 -11.68 134.09 -11.68 L 134.09 -11.68 Q 136.28 -11.68 137.45 -10.42 Q 138.62 -9.15 138.62 -6.53 L 138.62 -6.53 L 138.62 0 L 135.86 0 L 135.63 -1.17 L 135.54 -1.17 Q 134.8 -0.53 134 -0.13 Q 133.19 0.28 132.23 0.28 Z M 146.16 0.28 L 146.16 0.28 Q 144.42 0.28 143.74 -0.77 Q 143.06 -1.82 143.06 -3.54 L 143.06 -3.54 L 143.06 -16.12 L 146.44 -16.12 L 146.44 -3.4 Q 146.44 -2.88 146.64 -2.67 Q 146.83 -2.46 147.04 -2.46 L 147.04 -2.46 Q 147.27 -2.46 147.45 -2.51 L 147.45 -2.51 L 147.87 0 Q 147.25 0.28 146.16 0.28 Z M 155.62 0.28 L 155.62 0.28 Q 153.5 0.28 152.59 -0.94 Q 151.69 -2.16 151.69 -4.14 L 151.69 -4.14 L 151.69 -8.76 L 150.12 -8.76 L 150.12 -11.27 L 151.87 -11.41 L 152.26 -14.44 L 155.07 -14.44 L 155.07 -11.41 L 157.8 -11.41 L 157.8 -8.76 L 155.07 -8.76 L 155.07 -4.19 Q 155.07 -2.37 156.54 -2.37 L 156.54 -2.37 Q 156.81 -2.37 157.1 -2.44 Q 157.39 -2.51 157.62 -2.6 L 157.62 -2.6 L 158.15 -0.14 Q 157.69 0 157.07 0.14 Q 156.45 0.28 155.62 0.28 Z M 165 0 L 161.62 0 L 161.62 -16.12 L 165 -16.12 L 165 -12.17 L 164.84 -10.12 Q 165.48 -10.7 166.35 -11.19 Q 167.21 -11.68 168.36 -11.68 L 168.36 -11.68 Q 170.22 -11.68 171.06 -10.45 Q 171.9 -9.22 171.9 -7.08 L 171.9 -7.08 L 171.9 0 L 168.52 0 L 168.52 -6.65 Q 168.52 -7.89 168.19 -8.35 Q 167.85 -8.81 167.12 -8.81 L 167.12 -8.81 Q 166.47 -8.81 166.01 -8.52 Q 165.55 -8.23 165 -7.71 L 165 -7.71 L 165 0 Z M 188.53 -11.41 L 188.53 -8.76 L 186.48 -8.76 L 186.48 0 L 183.1 0 L 183.1 -8.76 L 181.58 -8.76 L 181.58 -11.27 L 183.1 -11.38 L 183.1 -12.01 Q 183.1 -13.82 184.05 -15.11 Q 184.99 -16.4 187.31 -16.4 L 187.31 -16.4 Q 188.02 -16.4 188.62 -16.26 Q 189.22 -16.12 189.59 -15.98 L 189.59 -15.98 L 188.97 -13.5 Q 188.32 -13.73 187.79 -13.73 L 187.79 -13.73 Q 186.48 -13.73 186.48 -12.1 L 186.48 -12.1 L 186.48 -11.41 L 188.53 -11.41 Z M 196.63 0.28 L 196.63 0.28 Q 195.18 0.28 193.9 -0.43 Q 192.62 -1.13 191.84 -2.47 Q 191.06 -3.82 191.06 -5.7 L 191.06 -5.7 Q 191.06 -7.59 191.84 -8.94 Q 192.62 -10.28 193.9 -10.98 Q 195.18 -11.68 196.63 -11.68 L 196.63 -11.68 Q 198.05 -11.68 199.33 -10.98 Q 200.61 -10.28 201.39 -8.94 Q 202.17 -7.59 202.17 -5.7 L 202.17 -5.7 Q 202.17 -3.82 201.39 -2.47 Q 200.61 -1.13 199.33 -0.43 Q 198.05 0.28 196.63 0.28 Z M 196.63 -2.46 L 196.63 -2.46 Q 197.66 -2.46 198.19 -3.35 Q 198.72 -4.23 198.72 -5.7 L 198.72 -5.7 Q 198.72 -7.18 198.19 -8.06 Q 197.66 -8.95 196.63 -8.95 L 196.63 -8.95 Q 195.57 -8.95 195.05 -8.06 Q 194.53 -7.18 194.53 -5.7 L 194.53 -5.7 Q 194.53 -4.23 195.05 -3.35 Q 195.57 -2.46 196.63 -2.46 Z M 209.46 0 L 206.08 0 L 206.08 -11.41 L 208.84 -11.41 L 209.07 -9.41 L 209.16 -9.41 Q 209.78 -10.56 210.66 -11.12 Q 211.53 -11.68 212.4 -11.68 L 212.4 -11.68 Q 212.89 -11.68 213.2 -11.62 Q 213.51 -11.55 213.76 -11.45 L 213.76 -11.45 L 213.21 -8.53 Q 212.91 -8.63 212.62 -8.67 Q 212.34 -8.72 211.97 -8.72 L 211.97 -8.72 Q 211.32 -8.72 210.62 -8.25 Q 209.92 -7.77 209.46 -6.62 L 209.46 -6.62 L 209.46 0 Z M 229.24 0 L 225.86 0 L 225.86 -5.34 L 221.33 -15 L 224.96 -15 L 226.3 -11.55 Q 226.62 -10.7 226.92 -9.9 Q 227.22 -9.11 227.52 -8.23 L 227.52 -8.23 L 227.61 -8.23 Q 227.93 -9.11 228.24 -9.9 Q 228.55 -10.7 228.87 -11.55 L 228.87 -11.55 L 230.23 -15 L 233.77 -15 L 229.24 -5.34 L 229.24 0 Z M 240.3 0.28 L 240.3 0.28 Q 238.85 0.28 237.58 -0.43 Q 236.3 -1.13 235.52 -2.47 Q 234.74 -3.82 234.74 -5.7 L 234.74 -5.7 Q 234.74 -7.59 235.52 -8.94 Q 236.3 -10.28 237.58 -10.98 Q 238.85 -11.68 240.3 -11.68 L 240.3 -11.68 Q 241.73 -11.68 243.01 -10.98 Q 244.28 -10.28 245.06 -8.94 Q 245.85 -7.59 245.85 -5.7 L 245.85 -5.7 Q 245.85 -3.82 245.06 -2.47 Q 244.28 -1.13 243.01 -0.43 Q 241.73 0.28 240.3 0.28 Z M 240.3 -2.46 L 240.3 -2.46 Q 241.34 -2.46 241.87 -3.35 Q 242.4 -4.23 242.4 -5.7 L 242.4 -5.7 Q 242.4 -7.18 241.87 -8.06 Q 241.34 -8.95 240.3 -8.95 L 240.3 -8.95 Q 239.25 -8.95 238.73 -8.06 Q 238.21 -7.18 238.21 -5.7 L 238.21 -5.7 Q 238.21 -4.23 238.73 -3.35 Q 239.25 -2.46 240.3 -2.46 Z M 253.18 0.28 L 253.18 0.28 Q 251.32 0.28 250.48 -0.95 Q 249.64 -2.19 249.64 -4.32 L 249.64 -4.32 L 249.64 -11.41 L 253.02 -11.41 L 253.02 -4.76 Q 253.02 -3.54 253.37 -3.07 Q 253.71 -2.6 254.45 -2.6 L 254.45 -2.6 Q 255.09 -2.6 255.53 -2.9 Q 255.97 -3.2 256.47 -3.86 L 256.47 -3.86 L 256.47 -11.41 L 259.85 -11.41 L 259.85 0 L 257.09 0 L 256.84 -1.59 L 256.77 -1.59 Q 256.04 -0.74 255.2 -0.23 Q 254.36 0.28 253.18 0.28 Z" stroke-linecap="round" />
</g>
</g>
</g>
<g transform="matrix(1.2486758093542416 0 0 1.2486758093542414 1019.7167097160197 773.0128995843872)" id="shape-c641cc20-9927-4f46-a411-48d40535c010"  >
<g style=""  paint-order="stroke"   >
		<g transform="matrix(1 0 0 1 0 0)" id="line-6"  >
<path style="stroke: none; stroke-width: 1; stroke-dasharray: none; stroke-linecap: butt; stroke-dashoffset: 0; stroke-linejoin: miter; stroke-miterlimit: 4; fill: rgb(36,95,116); fill-rule: nonzero; opacity: 1;"  paint-order="stroke"  transform=" translate(-100, -1.5580574021507687)" d="M 150 0.36 C 133.33 0.11 116.67 0 100 0 C 83.33 0 66.67 0.11 50 0.36 C 33.33 0.61 16.67 1 0 1.55 Q 25 2.44 50 2.74 C 66.67 2.99 83.33 3.0700000000000003 100 3.1100000000000003 C 116.67 3.1500000000000004 133.32999999999998 2.99 150 2.74 C 166.67000000000002 2.49 183.32999999999998 2.14 200 1.5500000000000003 Q 175 0.68 150 0.36 Z" stroke-linecap="round" />
</g>
</g>
</g>
<g transform="matrix(0 -1.7064096974972311 1.7064096974972314 0 640.1469232881011 526.1984555652526)" id="logo-logo"  >
<g style=""  paint-order="stroke"   >
		<g transform="matrix(0.9791043778128079 0 0 0.9791043778128079 -1.95380964440767 41.523407177498825)"  >
<g style=""  paint-order="stroke"   >
		<g transform="matrix(1 0 0 1 3.317543802143973 29.77153844647455)"  >
<linearGradient id="SVGID_21481" gradientUnits="userSpaceOnUse" gradientTransform="matrix(1 0 0 1 104.36631534042019 202.84753410000005)"  x1="0" y1="0" x2="0" y2="27">
<stop offset="0%" style="stop-color:rgb(91,36,122);stop-opacity: 1"/>
<stop offset="100%" style="stop-color:rgb(27,206,223);stop-opacity: 1"/>
</linearGradient>
<path style="stroke: none; stroke-width: 1; stroke-dasharray: none; stroke-linecap: butt; stroke-dashoffset: 0; stroke-linejoin: miter; stroke-miterlimit: 4; fill: url(#SVGID_21481); fill-rule: nonzero; opacity: 1;"  paint-order="stroke"  transform=" translate(-140.4299532702101, -216.18112222349117)" d="M 105.1339569 212.5618286 C 105.6105652 211.5626526 106.121788 210.5634765 106.5983963 209.54048160000002 C 109.1085358 204.76474000000002 115.2323837 202.97518920000002 120.54259490000001 204.42771910000002 C 121.61156460000001 204.71821590000002 122.6924438 205.00872800000002 123.78466800000001 205.24134830000003 C 123.74948890000002 205.60163880000002 123.7727509 205.99655150000004 123.80793000000001 206.35684210000002 C 124.40029150000001 215.3857422 132.1973724 222.19499210000004 141.2030029 221.60264590000003 C 150.2086334 220.99836730000004 157.0417328 213.22398380000004 156.4488067 204.19508360000003 C 156.42553700000002 203.81208800000005 156.39093010000002 203.39335630000002 156.3092193 202.99845880000004 C 156.4488067 202.95193480000003 156.5883788 202.90541070000003 156.7279662 202.84753410000005 C 158.1804808 204.35792530000003 159.77201829999998 205.74066150000004 161.4571685 207.00764460000005 C 164.8269042 209.50585930000005 168.6034545 211.45768730000006 172.5893706 212.77119440000004 C 173.4024504 213.04978940000004 175.2385253 213.88668820000004 176.4935912 213.82824700000003 C 175.703781 217.33757010000002 172.7987517 220.96319570000003 168.1733703 222.95019520000002 C 151.1732025 230.24798570000002 132.15084829999998 231.50248710000002 114.34895319999998 226.5060271 C 106.5518646 224.3096619 102.5892105 217.3375702 105.1339569 212.5618286 z" stroke-linecap="round" />
</g>
		<g transform="matrix(1 0 0 1 3.297088726602624 22.050241316352356)"  >
<linearGradient id="SVGID_46_21482" gradientUnits="userSpaceOnUse" gradientTransform="matrix(1 0 0 1 127.3080684161309 194.28825411353137)"  x1="0" y1="0" x2="0" y2="28">
<stop offset="0%" style="stop-color:rgb(91,36,122);stop-opacity: 1"/>
<stop offset="100%" style="stop-color:rgb(27,206,223);stop-opacity: 1"/>
</linearGradient>
<path style="stroke: none; stroke-width: 1; stroke-dasharray: none; stroke-linecap: butt; stroke-dashoffset: 0; stroke-linejoin: miter; stroke-miterlimit: 4; fill: url(#SVGID_46_21482); fill-rule: nonzero; opacity: 1;"  paint-order="stroke"  transform=" translate(-140.40949819466874, -208.45982509336898)" d="M 127.3371048 210.3938293 C 127.8137131 217.6133117 134.05331420000002 223.0795593 141.2733612 222.6023864 C 148.49284360000001 222.1252135 153.95909120000002 215.8856048 153.48191830000002 208.6661224 C 153.0580749 202.2506408 148.0809173 197.2309265 141.91224670000003 196.5245208 C 141.43109130000002 195.35400380000002 140.45291140000003 194.22204580000002 139.40267940000004 194.291275 C 138.35186760000005 194.3604889 137.53085320000005 195.6121521 137.20800780000005 196.8348846 C 131.1857147 198.3469849 126.9126968 203.9783478 127.3371048 210.3938293 z" stroke-linecap="round" />
</g>
		<g transform="matrix(1 0 0 1 -18.448295757149623 -2.4932652054419293)"  >
<linearGradient id="SVGID_47_21483" gradientUnits="userSpaceOnUse" gradientTransform="matrix(1 0 0 1 97.73122773613221 143.30445720705097)"  x1="0" y1="0" x2="0" y2="81">
<stop offset="0%" style="stop-color:rgb(91,36,122);stop-opacity: 1"/>
<stop offset="100%" style="stop-color:rgb(27,206,223);stop-opacity: 1"/>
</linearGradient>
<path style="stroke: none; stroke-width: 1; stroke-dasharray: none; stroke-linecap: butt; stroke-dashoffset: 0; stroke-linejoin: miter; stroke-miterlimit: 4; fill: url(#SVGID_47_21483); fill-rule: nonzero; opacity: 1;"  paint-order="stroke"  transform=" translate(-118.6641137109165, -183.9163185715747)" d="M 132.0350952 158.3430786 C 133.4223785 156.18472290000003 140.2503509 149.0401306 139.5462189 146.5731201 C 137.63241580000002 139.87052920000002 130.5054169 145.0865478 126.82872010000001 147.9961395 C 120.24812320000001 153.2042236 104.96884920000001 172.5346679 101.16902920000001 180.1535949 C 96.60720820000002 189.2993621 97.48609160000001 198.4405975 98.72924800000001 208.2320709 C 99.35678100000001 213.1746216 101.2921524 218.1069488 104.95466610000001 221.4846191 C 107.37117760000001 223.7127685 110.82432550000001 225.20954890000002 113.95632170000002 224.2143402 C 117.51726530000002 223.082962 119.36695860000002 219.2110901 119.08553310000002 215.6711426 C 118.79560080000002 212.01544189999998 119.12014770000002 209.3940888 117.06959530000002 206.8147278 C 113.71745300000002 202.5973053 118.39161680000002 183.49438479999998 118.70935820000001 178.11665349999998 C 119.0883713 171.700592 130.1366119 161.2986145 132.0350952 158.3430786 z" stroke-linecap="round" />
</g>
</g>
</g>
		<g transform="matrix(0.9791043778128079 0 0 0.9791043778128079 -41.615161792588026 25.912722807329203)"  >
<g style=""  paint-order="stroke"   >
		<g transform="matrix(1 0 0 1 -20.56145560895348 9.719132029486502)"  >
<linearGradient id="SVGID_48_21484" gradientUnits="userSpaceOnUse" gradientTransform="matrix(1 0 0 1 54.75882577233817 148.6082527940255)"  x1="0" y1="0" x2="0" y2="63">
<stop offset="0%" style="stop-color:rgb(91,36,122);stop-opacity: 1"/>
<stop offset="100%" style="stop-color:rgb(27,206,223);stop-opacity: 1"/>
</linearGradient>
<path style="stroke: none; stroke-width: 1; stroke-dasharray: none; stroke-linecap: butt; stroke-dashoffset: 0; stroke-linejoin: miter; stroke-miterlimit: 4; fill: url(#SVGID_48_21484); fill-rule: nonzero; opacity: 1;"  paint-order="stroke"  transform=" translate(-76.04316628616908, -180.18487496183047)" d="M 62.7444572 148.8580017 C 63.84803 148.77119439999998 64.9689102 148.7138824 66.0934829 148.6157226 C 71.4842681 148.4018249 76.0957336 152.8104553 77.4929351 158.1348419 C 77.7760619 159.2060852 78.06514729999999 160.2875213 78.4098357 161.3496857 C 78.0801848 161.49948120000002 77.7496795 161.7173462 77.4552077 161.9272919 C 69.9321669 166.9549408 67.9338149 177.1118012 72.9495543 184.6149903 C 77.9755019 192.1124879 88.1247099 194.14262399999998 95.6474608 189.1143952 C 95.967758 188.90332039999998 96.313011 188.6638947 96.61429580000001 188.39550789999998 C 96.7243727 188.49310309999998 96.83444200000001 188.59069829999999 96.9541624 188.68261729999998 C 96.3725889 190.69570929999998 95.9705885 192.76556409999998 95.7163999 194.85865789999997 C 95.2372358 199.02558909999996 95.4352567 203.27194219999996 96.2906034 207.38098149999996 C 96.4559934 208.22412109999996 96.6494749 210.23269659999997 97.3275068 211.29031379999995 C 93.8936537 212.36154179999994 89.301193 211.65797429999995 85.2676084 208.64627079999994 C 70.4473569 197.57192999999995 59.8496282 181.72583009999994 55.2761724 163.81101989999993 C 53.2795219 155.9600372 57.3363686 149.0418396 62.7444572 148.8580017 z" stroke-linecap="round" />
</g>
		<g transform="matrix(1 0 0 1 -13.601074645083997 7.427374183628814)"  >
<linearGradient id="SVGID_49_21485" gradientUnits="userSpaceOnUse" gradientTransform="matrix(1 0 0 1 69.90565965747035 164.79238710220685)"  x1="0" y1="0" x2="0" y2="26">
<stop offset="0%" style="stop-color:rgb(91,36,122);stop-opacity: 1"/>
<stop offset="100%" style="stop-color:rgb(27,206,223);stop-opacity: 1"/>
</linearGradient>
<path style="stroke: none; stroke-width: 1; stroke-dasharray: none; stroke-linecap: butt; stroke-dashoffset: 0; stroke-linejoin: miter; stroke-miterlimit: 4; fill: url(#SVGID_49_21485); fill-rule: nonzero; opacity: 1;"  paint-order="stroke"  transform=" translate(-83.00354725003857, -177.89311711597279)" d="M 75.723526 167.002594 C 69.7097473 171.0248413 68.0958023 179.16178889999998 72.1188889 185.1755676 C 76.1416932 191.1899109 84.27864840000001 192.8035736 90.2921448 188.780777 C 95.63611610000001 185.2062073 97.4948883 178.3861695 95.0222016 172.6901245 C 95.7955552 171.6886902 96.2869111 170.2753143 95.7016526 169.4003906 C 95.11610420000001 168.5249176 93.62187970000001 168.4398041 92.401703 168.7711639 C 88.0810165 164.312027 81.067215 163.427475 75.723526 167.002594 z" stroke-linecap="round" />
</g>
		<g transform="matrix(1 0 0 1 0 -23.82577102216152)"  >
<linearGradient id="SVGID_50_21486" gradientUnits="userSpaceOnUse" gradientTransform="matrix(1 0 0 1 54.610860788224244 129.16998873505253)"  x1="0" y1="0" x2="0" y2="35">
<stop offset="0%" style="stop-color:rgb(91,36,122);stop-opacity: 1"/>
<stop offset="100%" style="stop-color:rgb(27,206,223);stop-opacity: 1"/>
</linearGradient>
<path style="stroke: none; stroke-width: 1; stroke-dasharray: none; stroke-linecap: butt; stroke-dashoffset: 0; stroke-linejoin: miter; stroke-miterlimit: 4; fill: url(#SVGID_50_21486); fill-rule: nonzero; opacity: 1;"  paint-order="stroke"  transform=" translate(-96.60462189512256, -146.63997191018245)" d="M 123.1500397 145.0462646 C 125.71266179999999 145.167694 135.3140564 147.5087432 137.0987854 145.665863 C 141.9462891 140.6569366 133.8657837 137.092575 129.5076599 135.3631744 C 121.7065964 132.2686157 97.3266601 128.7019958 88.82855989999999 129.22059629999998 C 78.62686919999999 129.84245299999998 71.15007019999999 135.1736603 63.29198839999999 141.1465912 C 59.32535939999999 144.1611328 56.02115629999999 148.30366519999998 54.92750929999998 153.164505 C 54.206073799999984 156.37083429999998 54.636154199999986 160.1099396 57.06402209999998 162.3244629 C 59.82437899999998 164.8431091 64.10250859999998 164.50891109999998 67.02740479999999 162.4946747 C 70.04848479999998 160.4163208 72.48088839999998 159.3865051 73.68943029999998 156.3208924 C 75.66564949999999 151.3091279 94.54672249999999 145.80543519999998 99.36273959999998 143.39175419999998 C 105.1087112 140.5128174 119.6412964 144.8794556 123.1500397 145.0462646 z" stroke-linecap="round" />
</g>
</g>
</g>
		<g transform="matrix(0.9791043778128079 0 0 0.9791043778128079 -39.09909600859618 -34.16329346173819)"  >
<g style=""  paint-order="stroke"   >
		<g transform="matrix(1 0 0 1 -21.08203706284425 0.09845649956699276)"  >
<linearGradient id="SVGID_51_21487" gradientUnits="userSpaceOnUse" gradientTransform="matrix(1 0 0 1 56.08460815956021 76.9497923107354)"  x1="0" y1="0" x2="0" y2="65">
<stop offset="0%" style="stop-color:rgb(91,36,122);stop-opacity: 1"/>
<stop offset="100%" style="stop-color:rgb(27,206,223);stop-opacity: 1"/>
</linearGradient>
<path style="stroke: none; stroke-width: 1; stroke-dasharray: none; stroke-linecap: butt; stroke-dashoffset: 0; stroke-linejoin: miter; stroke-miterlimit: 4; fill: url(#SVGID_51_21487); fill-rule: nonzero; opacity: 1;"  paint-order="stroke"  transform=" translate(-78.09234740408135, -109.20606680536773)" d="M 96.7189789 80.2964554 C 97.3465195 81.2085343 97.9558945 82.1506882 98.6038513 83.0752487 C 101.4844971 87.636795 99.9724045 93.8349685 96.05910490000001 97.7074127 C 95.2732696 98.48814390000001 94.4811935 99.2790909 93.73394010000001 100.10861200000001 C 93.43946070000001 99.89782710000001 93.08541100000001 99.72080220000001 92.75632470000001 99.5707244 C 84.64035790000001 95.5691985 74.84492490000001 98.91709130000001 70.85502620000001 107.0126266 C 66.87534330000001 115.11383810000001 70.19174950000001 124.9186401 78.30714410000002 128.9196014 C 78.65097800000002 129.0909423 79.03113550000002 129.2702484 79.41355130000002 129.39706420000002 C 79.38404840000003 129.54116820000002 79.35454560000002 129.68528750000002 79.33525080000003 129.83508300000003 C 77.30059050000003 130.33778380000004 75.30734250000003 131.02490230000004 73.36800380000003 131.85073850000003 C 69.51938620000003 133.51971430000003 65.94028470000002 135.81452940000003 62.809989900000026 138.60978700000004 C 62.162597600000026 139.17462160000005 60.51943200000002 140.34628300000003 59.94296260000003 141.46234130000005 C 57.29891960000003 139.02369690000006 55.61149970000003 134.69506840000005 56.20272060000003 129.69578550000006 C 58.38263700000003 111.32423400000006 66.80725860000003 94.22306820000006 80.03598020000003 81.30471040000006 C 85.8364182 75.6503754 93.8559265 75.704277 96.7189789 80.2964554 z" stroke-linecap="round" />
</g>
		<g transform="matrix(1 0 0 1 -17.093127687275626 3.252966041838093)"  >
<linearGradient id="SVGID_52_21488" gradientUnits="userSpaceOnUse" gradientTransform="matrix(1 0 0 1 68.60324634861519 99.25755155592856)"  x1="0" y1="0" x2="0" y2="26">
<stop offset="0%" style="stop-color:rgb(91,36,122);stop-opacity: 1"/>
<stop offset="100%" style="stop-color:rgb(27,206,223);stop-opacity: 1"/>
</linearGradient>
<path style="stroke: none; stroke-width: 1; stroke-dasharray: none; stroke-linecap: butt; stroke-dashoffset: 0; stroke-linejoin: miter; stroke-miterlimit: 4; fill: url(#SVGID_52_21488); fill-rule: nonzero; opacity: 1;"  paint-order="stroke"  transform=" translate(-82.08125677964998, -112.36057634763883)" d="M 87.4954758 100.6087723 C 81.00451659999999 97.4115219 73.1512604 100.0822296 69.95401 106.57347109999999 C 66.7573318 113.0647049 69.4286041 120.91825109999999 75.9189911 124.1146469 C 81.6865234 126.9552917 88.5224533 125.1549606 92.2184372 120.1656036 C 93.4735031 120.33440399999999 94.9430466 120.0532608 95.4077377 119.1091232 C 95.8730011 118.1644134 95.1995086 116.8276443 94.3024597 115.93655389999999 C 96.0040665 109.9650497 93.2635727 103.4488449 87.4954758 100.6087723 z" stroke-linecap="round" />
</g>
		<g transform="matrix(1 0 0 1 12.988977688468268 0)"  >
<linearGradient id="SVGID_53_21489" gradientUnits="userSpaceOnUse" gradientTransform="matrix(1 0 0 1 82.06256353649675 74.90882938808443)"  x1="0" y1="0" x2="0" y2="68">
<stop offset="0%" style="stop-color:rgb(91,36,122);stop-opacity: 1"/>
<stop offset="100%" style="stop-color:rgb(27,206,223);stop-opacity: 1"/>
</linearGradient>
<path style="stroke: none; stroke-width: 1; stroke-dasharray: none; stroke-linecap: butt; stroke-dashoffset: 0; stroke-linejoin: miter; stroke-miterlimit: 4; fill: url(#SVGID_53_21489); fill-rule: nonzero; opacity: 1;"  paint-order="stroke"  transform=" translate(-112.16336215539387, -109.10761030580073)" d="M 130.2234192 130.7029114 C 131.3990631 132.98324590000001 134.1724701 142.4689026 136.6610413 143.092453 C 143.422638 144.7864075 142.4688569 136.00631710000002 141.7879944 131.3673248 C 140.5669556 123.0644073 131.4665833 100.1670532 126.768013 93.0667267 C 121.12814329999999 84.5430908 112.7727432 80.733345 103.6717911 76.9145203 C 99.07705689999999 74.9868088 93.83776859999999 74.1967163 89.0819016 75.679596 C 85.943657 76.6580582 82.9206009 78.9003907 82.2164689 82.1101227 C 81.4158784 85.76014710000001 83.8443147 89.29782870000001 87.0506364 90.8238297 C 90.361931 92.40089420000001 92.46922310000001 93.99242410000001 95.72831740000001 93.50617220000001 C 101.0572511 92.7121048 115.2635881 106.31133270000001 119.76186380000001 109.275383 C 125.1293869 112.8119354 128.6131744 127.5808411 130.2234192 130.7029114 z" stroke-linecap="round" />
</g>
</g>
</g>
		<g transform="matrix(0.9791043778128079 0 0 0.9791043778128079 1.9543592252601343 -41.52340913729603)"  >
<g style=""  paint-order="stroke"   >
		<g transform="matrix(1 0 0 1 -3.3175433324234405 -29.77153459647451)"  >
<linearGradient id="SVGID_54_21490" gradientUnits="userSpaceOnUse" gradientTransform="matrix(1 0 0 1 101.72280110000004 58.48529365626235)"  x1="0" y1="0" x2="0" y2="27">
<stop offset="0%" style="stop-color:rgb(91,36,122);stop-opacity: 1"/>
<stop offset="100%" style="stop-color:rgb(27,206,223);stop-opacity: 1"/>
</linearGradient>
<path style="stroke: none; stroke-width: 1; stroke-dasharray: none; stroke-linecap: butt; stroke-dashoffset: 0; stroke-linejoin: miter; stroke-miterlimit: 4; fill: url(#SVGID_54_21490); fill-rule: nonzero; opacity: 1;"  paint-order="stroke"  transform=" translate(-137.78644145511805, -71.81888362813118)" d="M 173.0824432 75.4381714 C 172.6058349 76.4373398 172.0946197 77.4365158 171.6180114 78.4595261 C 169.1078643 83.23525240000001 162.9840087 85.02481080000001 157.6737975 83.57228860000001 C 156.60484300000002 83.28178410000001 155.52395620000001 82.9912797 154.4317321 82.7586442 C 154.4669036 82.3983537 154.4436492 82.00344860000001 154.40846240000002 81.64315810000001 C 153.8161162 72.61426560000001 146.01902760000002 65.80500040000001 137.01339710000002 66.3973619 C 128.00776660000002 67.00163280000001 121.17466720000002 74.776024 121.76759330000002 83.8049165 C 121.79085530000002 84.1879045 121.82546990000002 84.60663620000001 121.90717310000002 85.0015413 C 121.76759330000002 85.048073 121.62801360000002 85.094597 121.48843380000002 85.1524736 C 120.03591920000002 83.6420747 118.44438170000002 82.2593462 116.75923150000003 80.99235549999999 C 113.38949580000002 78.49413309999998 109.61294550000002 76.54231279999999 105.62702170000003 75.22879809999999 C 104.81394950000004 74.9502108 102.97787470000003 74.113312 101.72280110000003 74.17175309999999 C 102.51261130000003 70.66243759999999 105.41765580000002 67.03681199999998 110.04302200000002 65.04980489999998 C 127.04319750000002 57.75202199999998 146.06555160000002 56.49752069999998 163.86744670000002 61.493965399999986 C 171.6645355 63.6903381 175.627182 70.6624374 173.0824432 75.4381714 z" stroke-linecap="round" />
</g>
		<g transform="matrix(1 0 0 1 -3.2970866589936065 -22.05024362666927)"  >
<linearGradient id="SVGID_55_21491" gradientUnits="userSpaceOnUse" gradientTransform="matrix(1 0 0 1 124.70547212679341 65.36860392679341)"  x1="0" y1="0" x2="0" y2="28">
<stop offset="0%" style="stop-color:rgb(91,36,122);stop-opacity: 1"/>
<stop offset="100%" style="stop-color:rgb(27,206,223);stop-opacity: 1"/>
</linearGradient>
<path style="stroke: none; stroke-width: 1; stroke-dasharray: none; stroke-linecap: butt; stroke-dashoffset: 0; stroke-linejoin: miter; stroke-miterlimit: 4; fill: url(#SVGID_55_21491); fill-rule: nonzero; opacity: 1;"  paint-order="stroke"  transform=" translate(-137.80689812854789, -79.54017459793641)" d="M 150.8792877 77.6061707 C 150.40267939999998 70.3866883 144.1630859 64.9204407 136.9430389 65.3976136 C 129.7235565 65.8747941 124.2573089 72.1143876 124.7344818 79.3338776 C 125.1583252 85.74936679999999 130.1354828 90.76907349999999 136.3041534 91.4754792 C 136.7852935 92.64600379999999 137.76348869999998 93.7779465 138.81372069999998 93.708725 C 139.86453249999997 93.6395035 140.68554689999996 92.38784030000001 141.00839229999997 91.1651154 C 147.0306854 89.6530151 151.3036957 84.0216599 150.8792877 77.6061707 z" stroke-linecap="round" />
</g>
		<g transform="matrix(1 0 0 1 18.448292108780606 2.493263946565577)"  >
<linearGradient id="SVGID_56_21492" gradientUnits="userSpaceOnUse" gradientTransform="matrix(1 0 0 1 138.61938531756124 63.471821549393525)"  x1="0" y1="0" x2="0" y2="81">
<stop offset="0%" style="stop-color:rgb(91,36,122);stop-opacity: 1"/>
<stop offset="100%" style="stop-color:rgb(27,206,223);stop-opacity: 1"/>
</linearGradient>
<path style="stroke: none; stroke-width: 1; stroke-dasharray: none; stroke-linecap: butt; stroke-dashoffset: 0; stroke-linejoin: miter; stroke-miterlimit: 4; fill: url(#SVGID_56_21492); fill-rule: nonzero; opacity: 1;"  paint-order="stroke"  transform=" translate(-159.5522768963221, -104.08368217117126)" d="M 146.1812897 129.6569214 C 144.7940216 131.81527709999997 137.966034 138.9598694 138.670166 141.4268799 C 140.5839844 148.12947079999998 147.7109833 142.9134522 151.38768 140.0038605 C 157.96827689999998 134.7957764 173.2475585 115.4653397 177.04736319999998 107.8464127 C 181.6091918 98.7006302 180.73030079999998 89.5593949 179.48715199999998 79.7679291 C 178.85961899999998 74.8253861 176.92423999999997 69.8930588 173.26173389999997 66.51537330000001 C 170.84521469999996 64.2872315 167.39207449999998 62.79045490000001 164.26007069999997 63.785659900000006 C 160.69912709999997 64.9170381 158.84944139999996 68.78891 159.13085929999997 72.32886520000001 C 159.42079159999997 75.9845659 159.09625239999997 78.60591140000001 161.14680469999996 81.1852724 C 164.49894699999996 85.4026873 159.82478319999996 104.5056078 159.50704949999997 109.8833467 C 159.1280212 116.2994003 148.0797882 126.7013855 146.1812897 129.6569214 z" stroke-linecap="round" />
</g>
</g>
</g>
		<g transform="matrix(0.9791043778128079 0 0 0.9791043778128079 41.61516226153981 -25.912725945753152)"  >
<g style=""  paint-order="stroke"   >
		<g transform="matrix(1 0 0 1 20.561449420558517 -9.719132029486502)"  >
<linearGradient id="SVGID_57_21493" gradientUnits="userSpaceOnUse" gradientTransform="matrix(1 0 0 1 180.8883209 76.2385044660482)"  x1="0" y1="0" x2="0" y2="63">
<stop offset="0%" style="stop-color:rgb(91,36,122);stop-opacity: 1"/>
<stop offset="100%" style="stop-color:rgb(27,206,223);stop-opacity: 1"/>
</linearGradient>
<path style="stroke: none; stroke-width: 1; stroke-dasharray: none; stroke-linecap: butt; stroke-dashoffset: 0; stroke-linejoin: miter; stroke-miterlimit: 4; fill: url(#SVGID_57_21493); fill-rule: nonzero; opacity: 1;"  paint-order="stroke"  transform=" translate(-202.17266095023422, -107.81512583601132)" d="M 215.4713745 139.1419983 C 214.3677978 139.22880560000002 213.24691769999998 139.2861176 212.122345 139.3842774 C 206.7315674 139.5981751 202.120102 135.1895447 200.7229004 129.8651581 C 200.4397736 128.7939148 200.1506806 127.71247100000001 199.8059845 126.6503143 C 200.1356506 126.5005264 200.46615599999998 126.28264610000001 200.76062009999998 126.0727157 C 208.28366089999997 121.0450591 210.28201289999998 110.88819120000001 205.2662811 103.3850173 C 200.2403259 95.8875121 190.09112549999998 93.8573836 182.5683746 98.8856048 C 182.2480774 99.096672 181.9028167 99.33611289999999 181.6015319 99.6044845 C 181.491455 99.5068969 181.3813781 99.4093017 181.2616729 99.3173904 C 181.8432464 97.30428309999999 182.24523920000001 95.23444359999999 182.4994354 93.1413345 C 182.9785919 88.97441859999999 182.7805786 84.7280578 181.9252319 80.6190185 C 181.7598419 79.7758712 181.5663604 77.76731099999999 180.8883209 76.70969389999999 C 184.322174 75.63845819999999 188.9146423 76.34201809999999 192.9482269 79.35373689999999 C 207.76847840000002 90.42807009999999 218.3662109 106.27416989999999 222.9396515 124.18897249999998 C 224.9363098 132.0399628 220.8794556 138.9581604 215.4713745 139.1419983 z" stroke-linecap="round" />
</g>
		<g transform="matrix(1 0 0 1 13.601073511617784 -7.4273740234710175)"  >
<linearGradient id="SVGID_58_21494" gradientUnits="userSpaceOnUse" gradientTransform="matrix(1 0 0 1 182.11439936702538 97.00615477709428)"  x1="0" y1="0" x2="0" y2="26">
<stop offset="0%" style="stop-color:rgb(91,36,122);stop-opacity: 1"/>
<stop offset="100%" style="stop-color:rgb(27,206,223);stop-opacity: 1"/>
</linearGradient>
<path style="stroke: none; stroke-width: 1; stroke-dasharray: none; stroke-linecap: butt; stroke-dashoffset: 0; stroke-linejoin: miter; stroke-miterlimit: 4; fill: url(#SVGID_58_21494); fill-rule: nonzero; opacity: 1;"  paint-order="stroke"  transform=" translate(-195.21228504129348, -110.1068838420268)" d="M 202.4923096 120.9973984 C 208.5060883 116.9751663 210.12002569999999 108.8382111 206.0969391 102.82443239999999 C 202.0741425 96.8100891 193.93717959999998 95.1964264 187.92369079999997 99.2192307 C 182.57971189999998 102.79379279999999 180.72094729999998 109.6138306 183.19363399999997 115.3098679 C 182.42027279999996 116.3113175 181.92892449999997 117.7246857 182.51417539999997 118.5996018 C 183.09973139999997 119.4750901 184.59394829999997 119.560196 185.81413269999996 119.2288437 C 190.1348114 123.6879654 197.1486206 124.5725327 202.4923096 120.9973984 z" stroke-linecap="round" />
</g>
		<g transform="matrix(1 0 0 1 0 23.825768357338305)"  >
<linearGradient id="SVGID_59_21495" gradientUnits="userSpaceOnUse" gradientTransform="matrix(1 0 0 1 139.6174509017373 123.89004118072481)"  x1="0" y1="0" x2="0" y2="35">
<stop offset="0%" style="stop-color:rgb(91,36,122);stop-opacity: 1"/>
<stop offset="100%" style="stop-color:rgb(27,206,223);stop-opacity: 1"/>
</linearGradient>
<path style="stroke: none; stroke-width: 1; stroke-dasharray: none; stroke-linecap: butt; stroke-dashoffset: 0; stroke-linejoin: miter; stroke-miterlimit: 4; fill: url(#SVGID_59_21495); fill-rule: nonzero; opacity: 1;"  paint-order="stroke"  transform=" translate(-181.6112115296757, -141.36002622283613)" d="M 155.0657959 142.9537354 C 152.5031738 142.832306 142.90177920000002 140.4912568 141.11705020000002 142.334137 C 136.26954650000002 147.3430634 144.35003670000003 150.907425 148.70817570000003 152.6368256 C 156.50923160000002 155.7313843 180.88917550000002 159.2980042 189.38726810000003 158.77940370000002 C 199.58895880000003 158.15754700000002 207.06576540000003 152.8263397 214.92384340000004 146.8534088 C 218.89047240000005 143.8388672 222.19467160000005 139.69633480000002 223.28831480000002 134.835495 C 224.00976560000004 131.62916570000002 223.57968140000003 127.89006810000001 221.15180970000003 125.67553710000001 C 218.39144900000002 123.15689090000001 214.11332700000003 123.49108120000001 211.18841550000002 125.50531770000002 C 208.1673431 127.58367160000002 205.73493950000002 128.61349490000003 204.52639770000002 131.67910770000003 C 202.5501709 136.69087220000003 183.66911320000003 142.19456490000005 178.85308840000002 144.60824590000004 C 173.1071167 147.4871826 158.5745392 143.1205444 155.0657959 142.9537354 z" stroke-linecap="round" />
</g>
</g>
</g>
		<g transform="matrix(0.9791043778128079 0 0 0.9791043778128079 39.09964961451658 34.16273005189015)"  >
<g style=""  paint-order="stroke"   >
		<g transform="matrix(1 0 0 1 21.082037835835592 -0.09845209557954604)"  >
<linearGradient id="SVGID_60_21496" gradientUnits="userSpaceOnUse" gradientTransform="matrix(1 0 0 1 178.1163150973802 146.5370941)"  x1="0" y1="0" x2="0" y2="65">
<stop offset="0%" style="stop-color:rgb(91,36,122);stop-opacity: 1"/>
<stop offset="100%" style="stop-color:rgb(27,206,223);stop-opacity: 1"/>
</linearGradient>
<path style="stroke: none; stroke-width: 1; stroke-dasharray: none; stroke-linecap: butt; stroke-dashoffset: 0; stroke-linejoin: miter; stroke-miterlimit: 4; fill: url(#SVGID_60_21496); fill-rule: nonzero; opacity: 1;"  paint-order="stroke"  transform=" translate(-200.12405173548683, -178.79336616796706)" d="M 181.4974213 207.7029724 C 180.8698883 206.79089349999998 180.2604981 205.8487396 179.6125489 204.9241791 C 176.7319031 200.3626404 178.2440034 194.1644593 182.1572877 190.29202270000002 C 182.94313060000002 189.51129150000003 183.73521430000002 188.7203369 184.48246780000002 187.89082340000002 C 184.77693190000002 188.1016083 185.1309969 188.2786255 185.4600832 188.42871100000002 C 193.5760347 192.4302369 203.3714754 189.08233650000003 207.3613741 180.98680120000003 C 211.3410494 172.88558970000003 208.0246584 163.08079530000003 199.90925620000002 159.07983400000003 C 199.56541460000003 158.90847780000004 199.1852724 158.72918700000002 198.8028414 158.60237120000002 C 198.8323519 158.45825190000002 198.8618471 158.31414790000002 198.8811495 158.1643524 C 200.9158022 157.66163630000003 202.9090578 156.9745331 204.8483889 156.1486969 C 208.69700650000001 154.4797058 212.276108 152.184906 215.4064028 149.3896484 C 216.0538027 148.8248138 217.6969607 147.6531524 218.2734377 146.5370941 C 220.9174807 148.97573849999998 222.60490439999998 153.30436699999998 222.01367209999998 158.30364989999998 C 219.83375569999998 176.6752014 211.4091341 193.77636719999998 198.1804201 206.69471739999997 C 192.3799744 212.3490601 184.3604736 212.2951508 181.4974213 207.7029724 z" stroke-linecap="round" />
</g>
		<g transform="matrix(1 0 0 1 17.093129331987143 -3.252962683203833)"  >
<linearGradient id="SVGID_61_21497" gradientUnits="userSpaceOnUse" gradientTransform="matrix(1 0 0 1 182.6571293859219 162.53583339996942)"  x1="0" y1="0" x2="0" y2="26">
<stop offset="0%" style="stop-color:rgb(91,36,122);stop-opacity: 1"/>
<stop offset="100%" style="stop-color:rgb(27,206,223);stop-opacity: 1"/>
</linearGradient>
<path style="stroke: none; stroke-width: 1; stroke-dasharray: none; stroke-linecap: butt; stroke-dashoffset: 0; stroke-linejoin: miter; stroke-miterlimit: 4; fill: url(#SVGID_61_21497); fill-rule: nonzero; opacity: 1;"  paint-order="stroke"  transform=" translate(-196.13514323163838, -175.63885558034278)" d="M 190.720932 187.3906555 C 197.2118835 190.5879059 205.0651398 187.9172058 208.2623901 181.4259643 C 211.45907590000002 174.9347228 208.78779600000001 167.08117670000001 202.29740900000002 163.88478080000002 C 196.52987670000002 161.0441436 189.69395440000002 162.8444823 185.9979553 167.83383170000002 C 184.7428894 167.6650237 183.2733459 167.9461669 182.8086548 168.8903045 C 182.3433991 169.83502190000002 183.01689149999999 171.1717834 183.9139404 172.0628814 C 182.212326 178.0343781 184.9528351 184.5505829 190.720932 187.3906555 z" stroke-linecap="round" />
</g>
		<g transform="matrix(1 0 0 1 -12.988973314817002 0)"  >
<linearGradient id="SVGID_62_21498" gradientUnits="userSpaceOnUse" gradientTransform="matrix(1 0 0 1 135.952239425709 144.69303249309786)"  x1="0" y1="0" x2="0" y2="68">
<stop offset="0%" style="stop-color:rgb(91,36,122);stop-opacity: 1"/>
<stop offset="100%" style="stop-color:rgb(27,206,223);stop-opacity: 1"/>
</linearGradient>
<path style="stroke: none; stroke-width: 1; stroke-dasharray: none; stroke-linecap: butt; stroke-dashoffset: 0; stroke-linejoin: miter; stroke-miterlimit: 4; fill: url(#SVGID_62_21498); fill-rule: nonzero; opacity: 1;"  paint-order="stroke"  transform=" translate(-166.05304058483424, -178.8918182635466)" d="M 147.992981 157.296524 C 146.81733709999997 155.01617430000002 144.04393009999998 145.5305328 141.5553589 144.9069671 C 134.79376219999997 143.21302790000001 135.7475433 151.9931182 136.42840579999998 156.6321105 C 137.64942939999997 164.93502800000002 146.74981689999998 187.83238210000002 151.44837959999998 194.9327086 C 157.08825689999998 203.4563445 165.44364939999997 207.2660826 174.54460149999997 211.08491500000002 C 179.13934329999998 213.01261890000004 184.37863169999997 213.80271900000002 189.13450629999997 212.3198393 C 192.27273569999997 211.3413695 195.29580699999997 209.0990446 195.99993899999998 205.8893126 C 196.80052189999998 202.2392882 194.3720856 198.70159900000002 191.16575629999997 197.175598 C 187.85446169999997 195.5985411 185.74717719999998 194.00700360000002 182.48808299999996 194.4932707 C 177.15914929999997 195.2873228 162.95280469999994 181.6880949 158.45452889999996 178.7240446 C 153.0870056 175.1875 149.6032257 160.4185944 147.992981 157.296524 z" stroke-linecap="round" />
</g>
</g>
</g>
</g>
</g>
<g transform="matrix(1.2486758093542416 0 0 1.2486758093542414 260.5771368601826 773.0128995843872)" id="shape-0c754729-f3e5-47d5-9df6-22b315092aed"  >
<g style=""  paint-order="stroke"   >
		<g transform="matrix(1 0 0 1 0 0)" id="line-6"  >
<path style="stroke: none; stroke-width: 1; stroke-dasharray: none; stroke-linecap: butt; stroke-dashoffset: 0; stroke-linejoin: miter; stroke-miterlimit: 4; fill: rgb(36,95,116); fill-rule: nonzero; opacity: 1;"  paint-order="stroke"  transform=" translate(-100, -1.5580574021507687)" d="M 150 0.36 C 133.33 0.11 116.67 0 100 0 C 83.33 0 66.67 0.11 50 0.36 C 33.33 0.61 16.67 1 0 1.55 Q 25 2.44 50 2.74 C 66.67 2.99 83.33 3.0700000000000003 100 3.1100000000000003 C 116.67 3.1500000000000004 133.32999999999998 2.99 150 2.74 C 166.67000000000002 2.49 183.32999999999998 2.14 200 1.5500000000000003 Q 175 0.68 150 0.36 Z" stroke-linecap="round" />
</g>
</g>
</g>
</svg>